<?xml version="1.0" standalone="no"?>
<!DOCTYPE svg PUBLIC "-//W3C//DTD SVG 20010904//EN"
 "http://www.w3.org/TR/2001/REC-SVG-20010904/DTD/svg10.dtd">
<svg version="1.0" xmlns="http://www.w3.org/2000/svg"
 width="731.000000pt" height="731.000000pt" viewBox="0 0 731.000000 731.000000"
 preserveAspectRatio="xMidYMid meet">
<metadata>
Created by potrace 1.14, written by Peter Selinger 2001-2017
</metadata>
<g transform="translate(0.000000,731.000000) scale(0.100000,-0.100000)"
fill="#000000" stroke="none">
<path d="M0 3655 l0 -3655 3655 0 3655 0 0 3655 0 3655 -3655 0 -3655 0 0
-3655z m4457 2750 c554 -72 1049 -324 1449 -736 433 -448 698 -1015 790 -1694
24 -177 24 -568 0 -749 -51 -392 -152 -727 -316 -1051 -350 -691 -936 -1189
-1633 -1389 -218 -63 -418 -90 -657 -90 -290 1 -549 45 -814 140 -150 54 -428
188 -536 258 -256 168 -500 403 -695 671 -58 80 -93 120 -105 119 -12 -1 -16
4 -13 12 3 8 10 11 16 7 5 -3 7 -1 4 5 -11 16 -42 3 -59 -25 l-16 -26 -7 23
c-7 24 -8 24 -20 -6 -11 -25 -14 -27 -20 -10 -5 11 -3 21 6 27 8 5 9 9 3 9 -6
0 -19 -9 -29 -20 -26 -29 -94 -48 -105 -30 -5 8 -12 11 -17 7 -4 -5 -3 -11 2
-15 10 -7 45 -66 45 -76 0 -7 -33 5 -40 14 -8 11 -72 21 -65 10 9 -14 -8 -12
-25 2 -13 11 -13 11 -2 -2 6 -7 12 -22 12 -31 0 -10 5 -19 12 -21 7 -3 8 -9 3
-18 -6 -10 -10 -8 -17 9 -5 15 -13 21 -23 17 -21 -8 -60 12 -103 51 -22 21
-38 29 -43 22 -4 -7 -9 -5 -13 6 -8 21 -50 16 -54 -7 -2 -10 6 -19 19 -23 15
-5 18 -9 9 -15 -9 -6 1 -26 36 -74 27 -37 56 -80 65 -96 9 -16 19 -27 22 -24
3 3 5 -5 5 -18 0 -13 3 -35 7 -49 5 -20 3 -26 -9 -26 -9 0 -16 4 -16 9 0 5 -5
6 -11 2 -6 -3 -24 3 -40 15 -15 11 -32 21 -37 21 -16 0 -162 142 -235 229
-349 416 -568 950 -627 1535 -18 175 -8 574 19 741 71 436 219 827 449 1175
111 170 188 265 327 409 409 422 921 681 1485 751 144 17 437 13 590 -10 l135
-20 120 25 c66 13 156 28 200 33 134 16 442 14 572 -3z"/>
<path d="M3973 6023 c-23 -9 -14 -24 23 -39 46 -19 67 -5 39 26 -18 19 -37 24
-62 13z"/>
<path d="M3714 5849 c-191 -17 -431 -82 -613 -165 -69 -31 -81 -40 -81 -61 0
-34 29 -86 101 -184 34 -46 104 -143 155 -215 50 -71 145 -202 210 -290 66
-89 134 -182 152 -208 34 -50 80 -76 131 -76 23 0 29 4 25 15 -5 11 -11 12
-24 5 -46 -25 -39 -6 8 21 101 57 160 137 196 260 45 153 87 646 70 809 -9 84
-9 85 -39 91 -41 9 -181 8 -291 -2z"/>
<path d="M4335 5708 c8 -139 26 -558 34 -768 8 -202 14 -225 71 -274 63 -52
120 -45 218 29 129 97 370 377 483 561 l42 68 -71 67 c-151 141 -417 293 -650
369 -67 22 -125 40 -127 40 -2 0 -2 -42 0 -92z"/>
<path d="M2714 5467 c-3 -8 -32 -36 -64 -62 -192 -150 -367 -378 -512 -665
-89 -178 -78 -250 48 -311 168 -80 954 -316 911 -273 -9 9 35 54 46 47 6 -3 7
-2 4 4 -3 5 12 36 34 69 86 129 100 222 55 358 -32 95 -158 350 -249 501 -60
101 -91 145 -186 266 -19 24 -28 38 -21 32 17 -16 34 -17 24 -2 -4 7 2 7 17
-1 24 -12 24 -12 -2 14 -31 32 -96 47 -105 23z"/>
<path d="M2820 5406 c0 -2 9 -6 20 -9 11 -3 18 -1 14 4 -5 9 -34 13 -34 5z"/>
<path d="M5344 5030 c-17 -25 -67 -108 -111 -185 -96 -167 -123 -213 -193
-325 -29 -47 -59 -105 -67 -129 -37 -124 11 -228 129 -281 46 -20 51 -20 125
-6 167 32 362 77 440 103 71 23 80 28 67 41 -8 8 -12 22 -9 33 3 10 -1 29 -10
42 -8 13 -12 27 -8 30 3 4 -1 15 -9 24 -22 26 -29 51 -15 57 7 2 4 5 -5 5 -12
1 -18 9 -18 24 0 12 -9 42 -20 66 -11 24 -20 52 -20 63 0 10 -4 16 -10 13 -5
-3 -10 2 -10 13 0 10 -3 22 -7 26 -5 4 -8 11 -8 14 -1 10 -132 272 -154 307
-10 17 -16 33 -14 38 2 4 -1 7 -6 7 -6 0 -11 7 -11 15 0 8 -4 15 -9 15 -5 0
-11 8 -13 18 -3 12 -11 5 -34 -28z"/>
<path d="M3920 4397 c-46 -16 -84 -85 -75 -137 12 -62 36 -85 94 -88 60 -4
107 22 118 66 10 39 6 106 -6 110 -6 2 -11 8 -11 14 0 33 -67 53 -120 35z"/>
<path d="M1995 4208 c-66 -36 -83 -78 -116 -278 -42 -255 -33 -795 15 -888 27
-52 51 -65 103 -59 160 19 666 216 824 320 99 65 113 98 118 271 4 171 -4 201
-67 257 -26 23 -36 36 -22 29 14 -7 27 -16 30 -20 7 -11 47 -17 48 -7 1 4 0 7
-3 7 -3 0 -14 8 -25 18 -55 51 -519 261 -718 326 -117 38 -154 43 -187 24z"/>
<path d="M5950 4205 c11 -13 8 -15 -14 -15 -33 0 -61 -40 -50 -72 7 -22 7 -22
14 -3 l8 20 8 -20 c4 -11 12 -23 18 -27 12 -8 56 -11 56 -4 0 2 3 12 6 20 5
12 2 15 -12 10 -16 -6 -17 -5 -6 7 27 29 9 99 -26 99 -12 0 -12 -3 -2 -15z
m18 -66 c-4 -28 -26 -31 -42 -6 -9 15 -7 21 8 33 24 17 39 5 34 -27z"/>
<path d="M1535 4149 c-4 -6 -5 -12 -2 -15 2 -3 7 2 10 11 7 17 1 20 -8 4z"/>
<path d="M5775 4143 c4 -10 13 -39 19 -65 6 -25 14 -47 19 -47 21 -3 25 1 19
22 -5 22 -5 22 16 4 11 -11 26 -16 32 -12 15 9 -36 56 -54 49 -9 -4 -16 6 -20
30 -4 23 -13 36 -23 36 -11 0 -13 -5 -8 -17z"/>
<path d="M3512 4130 c-31 -29 -31 -93 0 -114 30 -21 54 -20 78 4 26 26 26 80
0 108 -26 27 -50 28 -78 2z"/>
<path d="M5725 4139 c-10 -15 3 -25 16 -12 7 7 7 13 1 17 -6 3 -14 1 -17 -5z"/>
<path d="M5835 4131 c-3 -5 -1 -12 4 -15 5 -3 11 1 15 9 6 16 -9 21 -19 6z"/>
<path d="M4416 4108 c-25 -36 -20 -83 11 -107 17 -14 34 -19 47 -15 79 22 71
144 -9 144 -24 0 -39 -7 -49 -22z"/>
<path d="M5670 4111 c0 -15 29 -123 35 -129 2 -3 7 2 10 10 8 21 -18 121 -33
126 -7 2 -12 -1 -12 -7z"/>
<path d="M5576 4081 c-23 -25 -8 -55 34 -69 32 -12 40 -39 15 -48 -8 -4 -22
-1 -30 6 -12 10 -15 10 -15 -2 0 -23 10 -27 41 -16 60 21 59 80 -1 93 -37 8
-38 40 -2 39 12 0 22 3 22 8 0 16 -47 8 -64 -11z"/>
<path d="M5737 4093 c-2 -5 1 -27 7 -50 7 -28 15 -40 23 -35 9 5 9 18 0 50
-10 40 -21 51 -30 35z"/>
<path d="M1505 4080 c-3 -5 3 -10 14 -10 11 0 23 5 26 10 3 6 -3 10 -14 10
-11 0 -23 -4 -26 -10z"/>
<path d="M1498 4043 c6 -2 18 -2 25 0 6 3 1 5 -13 5 -14 0 -19 -2 -12 -5z"/>
<path d="M6262 4014 c-23 -16 -30 -62 -12 -80 6 -6 14 -30 19 -55 8 -40 9 -41
10 -11 1 20 6 32 15 32 11 0 14 12 12 48 -1 26 -7 55 -12 65 -9 15 -12 16 -32
1z"/>
<path d="M1498 4003 c6 -2 18 -2 25 0 6 3 1 5 -13 5 -14 0 -19 -2 -12 -5z"/>
<path d="M3893 3975 c-138 -43 -250 -171 -282 -323 -42 -201 47 -400 216 -484
53 -26 76 -31 136 -32 63 0 77 3 115 28 23 16 41 34 39 40 -2 6 16 33 40 60
23 26 43 52 43 58 0 5 5 6 10 3 6 -4 9 -3 8 2 -4 12 23 73 31 69 3 -2 7 8 8
22 3 60 16 121 24 116 5 -3 6 10 4 28 -4 25 -3 28 4 13 6 -13 7 6 4 55 -2 41
-4 83 -4 93 0 9 -4 17 -8 17 -5 0 -8 11 -8 25 0 44 -52 134 -96 166 -76 55
-192 73 -284 44z m384 -347 c-3 -8 -6 -5 -6 6 -1 11 2 17 5 13 3 -3 4 -12 1
-19z m-171 -430 c4 -7 4 -10 -1 -6 -4 4 -15 2 -24 -5 -14 -11 -14 -10 -2 6 16
20 18 21 27 5z"/>
<path d="M5745 3941 c-49 -21 -153 -67 -230 -103 -77 -35 -151 -68 -165 -71
-42 -11 -119 -75 -150 -124 -59 -92 -47 -198 31 -287 36 -41 76 -64 292 -172
137 -69 256 -123 264 -120 8 3 12 2 9 -3 -3 -4 5 -13 18 -19 21 -9 23 -8 24
24 1 19 8 57 16 85 8 27 11 47 6 44 -6 -4 -10 -1 -10 4 0 6 4 11 8 11 4 0 8
24 8 53 0 28 3 63 8 76 6 16 5 21 -3 17 -6 -4 -11 0 -11 9 0 8 7 18 15 21 12
5 13 10 4 20 -11 14 -8 82 5 103 4 7 2 19 -6 28 -10 13 -10 17 0 20 14 5 16
33 2 33 -16 0 -12 30 5 36 8 4 15 16 15 27 0 20 0 21 -16 1 -15 -18 -15 -18
-9 10 4 19 2 32 -7 37 -10 6 -10 11 -1 20 10 10 14 7 22 -12 l10 -24 0 23 c1
13 -6 36 -14 52 -9 17 -12 30 -7 30 9 0 8 70 -2 117 -4 17 -15 34 -24 36 -15
4 -15 5 1 6 21 1 22 17 1 25 -9 3 -16 6 -17 5 -1 0 -42 -18 -92 -38z m88 14
c-3 -9 -8 -14 -10 -11 -3 3 -2 9 2 15 9 16 15 13 8 -4z"/>
<path d="M1489 3919 c-11 -11 -18 -24 -14 -27 4 -4 11 1 16 11 13 22 26 22 32
0 3 -11 5 -7 6 10 1 32 -12 34 -40 6z"/>
<path d="M1490 3868 c0 -15 18 -17 30 -3 9 11 8 14 -9 12 -12 -1 -21 -5 -21
-9z"/>
<path d="M1341 3721 c-6 -11 -11 -30 -10 -43 l0 -23 11 23 c6 12 15 22 19 22
4 0 10 -10 12 -22 3 -13 4 -5 4 16 -2 44 -20 58 -36 27z"/>
<path d="M1268 3673 c6 -2 18 -2 25 0 6 3 1 5 -13 5 -14 0 -19 -2 -12 -5z"/>
<path d="M3205 3644 c-18 -20 -25 -38 -25 -69 0 -77 62 -123 120 -89 55 33 66
103 24 153 -34 41 -84 43 -119 5z"/>
<path d="M4497 3632 c-33 -35 -32 -126 2 -153 13 -11 39 -19 59 -19 48 0 112
64 105 107 -8 49 -24 70 -62 82 -49 15 -78 11 -104 -17z"/>
<path d="M1263 3553 c9 -2 23 -2 30 0 6 3 -1 5 -18 5 -16 0 -22 -2 -12 -5z"/>
<path d="M1263 3493 c9 -2 23 -2 30 0 6 3 -1 5 -18 5 -16 0 -22 -2 -12 -5z"/>
<path d="M4155 3249 c-11 -17 1 -21 15 -4 8 9 8 15 2 15 -6 0 -14 -5 -17 -11z"/>
<path d="M3485 3105 c-46 -45 -21 -119 38 -113 56 5 75 79 31 122 -22 22 -41
20 -69 -9z"/>
<path d="M4395 3100 c-37 -41 -11 -120 40 -120 32 0 59 35 59 77 0 58 -61 85
-99 43z"/>
<path d="M3015 2984 c-333 -71 -818 -202 -909 -245 -83 -38 -108 -101 -81
-196 24 -82 133 -307 198 -407 46 -70 126 -170 207 -258 45 -49 176 -158 190
-158 25 0 158 143 237 255 96 135 193 295 262 429 93 182 108 251 73 351 -16
46 -69 147 -109 205 -17 25 -17 25 3 8 11 -10 26 -18 32 -18 7 0 12 -4 12 -10
0 -5 5 -10 11 -10 5 0 7 6 3 13 -6 9 -5 9 8 0 8 -7 17 -10 21 -7 3 3 16 1 29
-6 20 -10 21 -10 6 3 -10 8 -15 17 -12 20 10 9 -39 35 -76 41 -19 3 -66 -2
-105 -10z"/>
<path d="M5066 2950 c-87 -27 -156 -120 -156 -209 0 -68 16 -115 75 -222 29
-53 106 -200 170 -327 64 -128 121 -229 127 -226 19 12 165 202 223 290 69
104 190 337 230 443 l28 74 -24 18 c-13 10 -29 19 -36 19 -6 0 -19 7 -27 16
-9 8 -20 13 -25 10 -5 -4 -11 -2 -13 3 -3 10 -141 50 -313 92 -100 24 -215 33
-259 19z"/>
<path d="M3860 2937 c-54 -27 -66 -106 -24 -156 34 -41 75 -42 115 -2 72 73
-3 204 -91 158z"/>
<path d="M3635 2451 c-26 -11 -56 -39 -85 -77 -24 -32 -101 -126 -170 -209
-298 -356 -490 -600 -490 -624 0 -13 31 -33 118 -73 250 -119 500 -178 755
-178 l125 0 13 68 c19 92 19 615 0 727 -18 108 -46 194 -77 241 -15 21 -20 33
-12 26 8 -6 18 -10 21 -7 4 3 5 2 2 -1 -5 -7 23 -64 31 -64 4 0 4 7 0 15 -7
20 4 46 17 38 11 -7 9 -4 -30 59 -44 71 -137 96 -218 59z m149 -70 c-2 -3 -12
3 -22 13 -16 17 -16 18 5 5 12 -7 20 -15 17 -18z"/>
<path d="M4405 2446 c-40 -18 -80 -62 -100 -109 -9 -22 -20 -93 -25 -165 -5
-70 -18 -197 -29 -282 -11 -85 -25 -216 -31 -290 -6 -74 -15 -163 -19 -198 -7
-54 -5 -62 8 -58 9 3 36 10 61 16 25 7 54 16 65 21 11 4 45 18 75 30 68 26
124 52 215 96 39 20 71 30 73 25 2 -6 10 -8 18 -5 12 4 12 8 2 22 -12 14 -11
14 4 2 15 -11 26 -8 85 24 58 32 171 108 236 159 17 13 16 18 -27 94 -66 116
-232 352 -304 434 -19 20 -35 43 -36 50 -6 27 -18 48 -29 48 -5 0 -2 -10 9
-22 17 -21 16 -21 -9 1 -27 24 -36 38 -17 26 13 -8 13 5 -2 38 -24 51 -151 75
-223 43z m375 -860 c0 -3 -4 -8 -10 -11 -5 -3 -10 -1 -10 4 0 6 5 11 10 11 6
0 10 -2 10 -4z"/>
<path d="M3876 2287 c1 -17 3 -38 3 -46 1 -11 5 -10 16 5 8 10 14 24 15 29 0
6 -5 3 -10 -5 -8 -12 -10 -9 -10 12 0 15 -4 29 -9 32 -5 3 -7 -9 -5 -27z"/>
<path d="M1900 1930 c0 -5 5 -10 10 -10 6 0 10 5 10 10 0 6 -4 10 -10 10 -5 0
-10 -4 -10 -10z"/>
<path d="M1360 1850 c0 -5 5 -10 10 -10 6 0 10 5 10 10 0 6 -4 10 -10 10 -5 0
-10 -4 -10 -10z"/>
<path d="M5078 1473 c7 -3 16 -2 19 1 4 3 -2 6 -13 5 -11 0 -14 -3 -6 -6z"/>
<path d="M5110 1440 c0 -5 5 -10 10 -10 6 0 10 5 10 10 0 6 -4 10 -10 10 -5 0
-10 -4 -10 -10z"/>
</g>
</svg>
